<?xml version="1.0" encoding="UTF-8"?>
<svg version="1.1" xmlns="http://www.w3.org/2000/svg" width="78" height="78">
<path d="M0 0 C25.74 0 51.48 0 78 0 C78 25.74 78 51.48 78 78 C52.26 78 26.52 78 0 78 C0 52.26 0 26.52 0 0 Z " fill="#AE0187" transform="translate(0,0)"/>
<path d="M0 0 C1.46566406 -0.00386719 1.46566406 -0.00386719 2.9609375 -0.0078125 C3.98445313 -0.00007812 5.00796875 0.00765625 6.0625 0.015625 C7.08601563 0.00789062 8.10953125 0.00015625 9.1640625 -0.0078125 C10.14117188 -0.00523438 11.11828125 -0.00265625 12.125 0 C13.02347656 0.00225586 13.92195313 0.00451172 14.84765625 0.00683594 C17.0625 0.265625 17.0625 0.265625 19.0625 2.265625 C19.31646729 4.31494141 19.31646729 4.31494141 19.32128906 6.8671875 C19.32759338 7.82157715 19.33389771 8.7759668 19.34039307 9.75927734 C19.3363446 10.79262207 19.33229614 11.8259668 19.328125 12.890625 C19.33003845 13.94846191 19.3319519 15.00629883 19.33392334 16.09619141 C19.33528602 18.33561439 19.33158382 20.57504526 19.32324219 22.81445312 C19.31254402 26.25148177 19.32313488 29.6879877 19.3359375 33.125 C19.33461592 35.29687616 19.33205356 37.46875199 19.328125 39.640625 C19.33217346 40.67396973 19.33622192 41.70731445 19.34039307 42.77197266 C19.33408875 43.7263623 19.32778442 44.68075195 19.32128906 45.6640625 C19.31890228 46.92742432 19.31890228 46.92742432 19.31646729 48.21630859 C19.0625 50.265625 19.0625 50.265625 17.0625 52.265625 C14.84765625 52.52441406 14.84765625 52.52441406 12.125 52.53125 C11.14789062 52.53382812 10.17078125 52.53640625 9.1640625 52.5390625 C8.14054687 52.53132813 7.11703125 52.52359375 6.0625 52.515625 C5.03898437 52.52335937 4.01546875 52.53109375 2.9609375 52.5390625 C1.98382813 52.53648438 1.00671875 52.53390625 0 52.53125 C-0.89847656 52.52899414 -1.79695313 52.52673828 -2.72265625 52.52441406 C-4.9375 52.265625 -4.9375 52.265625 -6.9375 50.265625 C-7.19146729 48.21630859 -7.19146729 48.21630859 -7.19628906 45.6640625 C-7.20259338 44.70967285 -7.20889771 43.7552832 -7.21539307 42.77197266 C-7.2113446 41.73862793 -7.20729614 40.7052832 -7.203125 39.640625 C-7.20503845 38.58278809 -7.2069519 37.52495117 -7.20892334 36.43505859 C-7.21028602 34.19563561 -7.20658382 31.95620474 -7.19824219 29.71679688 C-7.18754402 26.27976823 -7.19813488 22.8432623 -7.2109375 19.40625 C-7.20961592 17.23437384 -7.20705356 15.06249801 -7.203125 12.890625 C-7.20919769 11.34060791 -7.20919769 11.34060791 -7.21539307 9.75927734 C-7.20908875 8.8048877 -7.20278442 7.85049805 -7.19628906 6.8671875 C-7.19469788 6.02494629 -7.19310669 5.18270508 -7.19146729 4.31494141 C-6.63756433 -0.15462014 -3.7975677 0.00953478 0 0 Z " fill="#030002" transform="translate(19.9375,12.734375)"/>
<path d="M0 0 C9.24 0 18.48 0 28 0 C28 5.28 28 10.56 28 16 C18.76 16 9.52 16 0 16 C0 10.72 0 5.44 0 0 Z " fill="#9D007A" transform="translate(39,31)"/>
<path d="M0 0 C7.26 0 14.52 0 22 0 C22.020625 2.949375 22.04125 5.89875 22.0625 8.9375 C22.071604 9.86812256 22.08070801 10.79874512 22.09008789 11.75756836 C22.09258545 12.48596924 22.09508301 13.21437012 22.09765625 13.96484375 C22.10551147 15.08814087 22.10551147 15.08814087 22.11352539 16.23413086 C22 18 22 18 21 19 C19.52347336 19.09880797 18.04232764 19.13079245 16.5625 19.1328125 C15.22058594 19.13474609 15.22058594 19.13474609 13.8515625 19.13671875 C12.91054688 19.13285156 11.96953125 19.12898438 11 19.125 C9.58847656 19.13080078 9.58847656 19.13080078 8.1484375 19.13671875 C7.25382812 19.13542969 6.35921875 19.13414063 5.4375 19.1328125 C4.61121094 19.13168457 3.78492188 19.13055664 2.93359375 19.12939453 C1 19 1 19 0 18 C-0.08631874 16.65732587 -0.10706473 15.31025678 -0.09765625 13.96484375 C-0.09515869 13.23644287 -0.09266113 12.50804199 -0.09008789 11.75756836 C-0.08098389 10.8269458 -0.07187988 9.89632324 -0.0625 8.9375 C-0.041875 5.988125 -0.02125 3.03875 0 0 Z " fill="#C4005C" transform="translate(15,45)"/>
<path d="M0 0 C1.32 0 2.64 0 4 0 C4 0.66 4 1.32 4 2 C5.91697937 1.85833643 7.83357723 1.71150416 9.75 1.5625 C10.81734375 1.48128906 11.8846875 1.40007813 12.984375 1.31640625 C15.90892379 1.08385541 15.90892379 1.08385541 18.328125 0.40234375 C18.87984375 0.26957031 19.4315625 0.13679687 20 0 C21 1 21 1 21.11352539 2.76586914 C21.10828857 3.51473389 21.10305176 4.26359863 21.09765625 5.03515625 C21.09515869 5.76355713 21.09266113 6.49195801 21.09008789 7.24243164 C21.08098389 8.1730542 21.07187988 9.10367676 21.0625 10.0625 C21.041875 13.011875 21.02125 15.96125 21 19 C13.74 19 6.48 19 -1 19 C-1.020625 16.050625 -1.04125 13.10125 -1.0625 10.0625 C-1.071604 9.13187744 -1.08070801 8.20125488 -1.09008789 7.24243164 C-1.09258545 6.51403076 -1.09508301 5.78562988 -1.09765625 5.03515625 C-1.10289307 4.2862915 -1.10812988 3.53742676 -1.11352539 2.76586914 C-1 1 -1 1 0 0 Z " fill="#6F0055" transform="translate(16,14)"/>
<path d="M0 0 C1.46566406 -0.00386719 1.46566406 -0.00386719 2.9609375 -0.0078125 C3.98445313 -0.00007812 5.00796875 0.00765625 6.0625 0.015625 C7.08601563 0.00789062 8.10953125 0.00015625 9.1640625 -0.0078125 C10.14117188 -0.00523438 11.11828125 -0.00265625 12.125 0 C13.02347656 0.00225586 13.92195313 0.00451172 14.84765625 0.00683594 C17.0625 0.265625 17.0625 0.265625 19.0625 2.265625 C19.31646729 4.31494141 19.31646729 4.31494141 19.32128906 6.8671875 C19.32759338 7.82157715 19.33389771 8.7759668 19.34039307 9.75927734 C19.3363446 10.79262207 19.33229614 11.8259668 19.328125 12.890625 C19.33003845 13.94846191 19.3319519 15.00629883 19.33392334 16.09619141 C19.33528602 18.33561439 19.33158382 20.57504526 19.32324219 22.81445312 C19.31254402 26.25148177 19.32313488 29.6879877 19.3359375 33.125 C19.33461592 35.29687616 19.33205356 37.46875199 19.328125 39.640625 C19.33217346 40.67396973 19.33622192 41.70731445 19.34039307 42.77197266 C19.33408875 43.7263623 19.32778442 44.68075195 19.32128906 45.6640625 C19.31890228 46.92742432 19.31890228 46.92742432 19.31646729 48.21630859 C19.0625 50.265625 19.0625 50.265625 17.0625 52.265625 C14.84765625 52.52441406 14.84765625 52.52441406 12.125 52.53125 C11.14789062 52.53382812 10.17078125 52.53640625 9.1640625 52.5390625 C8.14054687 52.53132813 7.11703125 52.52359375 6.0625 52.515625 C5.03898437 52.52335937 4.01546875 52.53109375 2.9609375 52.5390625 C1.98382813 52.53648438 1.00671875 52.53390625 0 52.53125 C-0.89847656 52.52899414 -1.79695313 52.52673828 -2.72265625 52.52441406 C-4.9375 52.265625 -4.9375 52.265625 -6.9375 50.265625 C-7.19146729 48.21630859 -7.19146729 48.21630859 -7.19628906 45.6640625 C-7.20259338 44.70967285 -7.20889771 43.7552832 -7.21539307 42.77197266 C-7.2113446 41.73862793 -7.20729614 40.7052832 -7.203125 39.640625 C-7.20503845 38.58278809 -7.2069519 37.52495117 -7.20892334 36.43505859 C-7.21028602 34.19563561 -7.20658382 31.95620474 -7.19824219 29.71679688 C-7.18754402 26.27976823 -7.19813488 22.8432623 -7.2109375 19.40625 C-7.20961592 17.23437384 -7.20705356 15.06249801 -7.203125 12.890625 C-7.20919769 11.34060791 -7.20919769 11.34060791 -7.21539307 9.75927734 C-7.20908875 8.8048877 -7.20278442 7.85049805 -7.19628906 6.8671875 C-7.19469788 6.02494629 -7.19310669 5.18270508 -7.19146729 4.31494141 C-6.63756433 -0.15462014 -3.7975677 0.00953478 0 0 Z M-3.9375 1.265625 C-6.02399514 3.35212014 -5.35947425 7.69358828 -5.5 10.578125 C-5.5417334 11.40119141 -5.5834668 12.22425781 -5.62646484 13.07226562 C-6.09000556 22.73661655 -5.98983444 32.29260642 -5.5 41.953125 C-5.46084473 42.75685547 -5.42168945 43.56058594 -5.38134766 44.38867188 C-5.50731742 48.13749984 -5.50731742 48.13749984 -3.9375 51.265625 C-2.46097336 51.36443297 -0.97982764 51.39641745 0.5 51.3984375 C1.84191406 51.40037109 1.84191406 51.40037109 3.2109375 51.40234375 C4.62246094 51.39654297 4.62246094 51.39654297 6.0625 51.390625 C7.00351562 51.39449219 7.94453125 51.39835937 8.9140625 51.40234375 C9.80867188 51.40105469 10.70328125 51.39976563 11.625 51.3984375 C12.86443359 51.39674561 12.86443359 51.39674561 14.12890625 51.39501953 C16.06929039 51.47827307 16.06929039 51.47827307 17.0625 50.265625 C17.30562697 47.489175 17.48945934 44.73533417 17.625 41.953125 C17.6876001 40.71852539 17.6876001 40.71852539 17.75146484 39.45898438 C18.34928799 26.99498187 17.83668702 14.70791634 17.0625 2.265625 C15.11646726 1.67492486 15.11646726 1.67492486 13.0625 1.265625 C12.7325 1.595625 12.4025 1.925625 12.0625 2.265625 C10.04655418 2.49990278 8.024026 2.67898624 6 2.828125 C4.34291016 2.95380859 4.34291016 2.95380859 2.65234375 3.08203125 C1.37037109 3.17291016 1.37037109 3.17291016 0.0625 3.265625 C0.0625 2.605625 0.0625 1.945625 0.0625 1.265625 C-1.2575 1.265625 -2.5775 1.265625 -3.9375 1.265625 Z " fill="#3A142C" transform="translate(19.9375,12.734375)"/>
<path d="M0 0 C7.26 0 14.52 0 22 0 C22 9 22 9 20.125 11.0625 C15.72080528 12.38375842 11.56235071 12.2391912 7 12 C6.34 10.35 5.68 8.7 5 7 C9.75 4 9.75 4 12 4 C12 3.34 12 2.68 12 2 C8.04 2 4.08 2 0 2 C0 1.34 0 0.68 0 0 Z " fill="#6A004E" transform="translate(15,45)"/>
<path d="M0 0 C1.32 0 2.64 0 4 0 C4 0.66 4 1.32 4 2 C5.98 2 7.96 2 10 2 C8.95902388 5.86648272 7.96301592 9.49461443 6 13 C6.99 13 7.98 13 9 13 C9 14.32 9 15.64 9 17 C5.7 17 2.4 17 -1 17 C-1.02684679 14.35409986 -1.04676357 11.70846904 -1.0625 9.0625 C-1.07087891 8.30775391 -1.07925781 7.55300781 -1.08789062 6.77539062 C-1.09652441 4.85005687 -1.05224333 2.92464419 -1 1 C-0.67 0.67 -0.34 0.34 0 0 Z " fill="#AA0085" transform="translate(16,14)"/>
<path d="M0 0 C0.99 0.33 1.98 0.66 3 1 C2.67 3.31 2.34 5.62 2 8 C2.804375 8.144375 3.60875 8.28875 4.4375 8.4375 C7 9 7 9 8 10 C8.04063832 11.66617115 8.042721 13.33388095 8 15 C5.03 15 2.06 15 -1 15 C-1 13.68 -1 12.36 -1 11 C-1.99 11 -2.98 11 -4 11 C-3.52269162 9.5410574 -3.04308958 8.08286504 -2.5625 6.625 C-2.29566406 5.81289063 -2.02882813 5.00078125 -1.75390625 4.1640625 C-1 2 -1 2 0 0 Z " fill="#900067" transform="translate(26,16)"/>
<path d="M0 0 C1.32 0 2.64 0 4 0 C4 0.66 4 1.32 4 2 C5.32 2.33 6.64 2.66 8 3 C6.55536047 6.37082558 4.75336875 8.58037292 2 11 C1.01 11.33 0.02 11.66 -1 12 C-1.02687279 10.18757948 -1.04633715 8.37504767 -1.0625 6.5625 C-1.07410156 5.55316406 -1.08570313 4.54382813 -1.09765625 3.50390625 C-1 1 -1 1 0 0 Z " fill="#ED0088" transform="translate(16,14)"/>
<path d="M0 0 C3.96 0 7.92 0 12 0 C12 0.66 12 1.32 12 2 C10.02 2.99 8.04 3.98 6 5 C6.33 6.32 6.66 7.64 7 9 C2.25 8.25 2.25 8.25 0 6 C0 4.02 0 2.04 0 0 Z " fill="#93006E" transform="translate(15,47)"/>
<path d="M0 0 C5.61 0 11.22 0 17 0 C17 1.32 17 2.64 17 4 C11.39 4 5.78 4 0 4 C0 2.68 0 1.36 0 0 Z " fill="#450036" transform="translate(44,37)"/>
<path d="M0 0 C3.64581687 -0.02887512 7.29160463 -0.04675585 10.9375 -0.0625 C12.49887695 -0.07506836 12.49887695 -0.07506836 14.09179688 -0.08789062 C15.08115234 -0.09111328 16.07050781 -0.09433594 17.08984375 -0.09765625 C18.46450806 -0.10551147 18.46450806 -0.10551147 19.86694336 -0.11352539 C22 0 22 0 23 1 C23.14115161 3.67058851 23.04247107 6.32432238 23 9 C22.67 9 22.34 9 22 9 C21.67 6.69 21.34 4.38 21 2 C20.46890625 2.16371094 19.9378125 2.32742188 19.390625 2.49609375 C16.46123236 3.11356377 13.74177064 3.09501925 10.75 3.0625 C9.67234375 3.05347656 8.5946875 3.04445313 7.484375 3.03515625 C6.66453125 3.02355469 5.8446875 3.01195312 5 3 C5 2.34 5 1.68 5 1 C3.02 1.66 1.04 2.32 -1 3 C-0.67 2.01 -0.34 1.02 0 0 Z " fill="#190B14" transform="translate(15,13)"/>
<path d="M0 0 C2.0625 0.4375 2.0625 0.4375 4 1 C4 3.64 4 6.28 4 9 C2.35 8.67 0.7 8.34 -1 8 C-1.04241723 5.66705225 -1.04092937 3.33297433 -1 1 C-0.67 0.67 -0.34 0.34 0 0 Z " fill="#55003F" transform="translate(33,14)"/>
<path d="M0 0 C0.33 0 0.66 0 1 0 C1.3125 2.3125 1.3125 2.3125 1 5 C-2.17299481 8.06722832 -5.09153351 8.17552563 -9.3125 8.1875 C-10.87551517 8.13958275 -12.43839515 8.08187055 -14 8 C-14 7.67 -14 7.34 -14 7 C-12.9275 6.71125 -11.855 6.4225 -10.75 6.125 C-6.10122351 4.73036705 -3.32963699 3.48819113 0 0 Z " fill="#A20055" transform="translate(36,49)"/>
<path d="M0 0 C0.99 0 1.98 0 3 0 C1.768606 3.69418201 -0.20791354 5.35109746 -3 8 C-1.35 7.67 0.3 7.34 2 7 C1.67 7.66 1.34 8.32 1 9 C-0.98 9 -2.96 9 -5 9 C-5.66 7.68 -6.32 6.36 -7 5 C-2.25 2 -2.25 2 0 2 C0 1.34 0 0.68 0 0 Z " fill="#82005E" transform="translate(27,47)"/>
<path d="M0 0 C2.31 0 4.62 0 7 0 C6.67 1.65 6.34 3.3 6 5 C5.67 4.01 5.34 3.02 5 2 C4.34 2 3.68 2 3 2 C3 2.99 3 3.98 3 5 C1.35 5 -0.3 5 -2 5 C-2.33 3.68 -2.66 2.36 -3 1 C-2.01 1.33 -1.02 1.66 0 2 C0 1.34 0 0.68 0 0 Z " fill="#484848" transform="translate(24,36)"/>
<path d="M0 0 C0.33 1.32 0.66 2.64 1 4 C2.32 4 3.64 4 5 4 C5 5.65 5 7.3 5 9 C3.68 9 2.36 9 1 9 C1 7.68 1 6.36 1 5 C0.01 5 -0.98 5 -2 5 C-1.34 3.35 -0.68 1.7 0 0 Z " fill="#9B0078" transform="translate(24,22)"/>
<path d="M0 0 C2.64 0 5.28 0 8 0 C4.25 3 4.25 3 2 3 C2.99 4.98 3.98 6.96 5 9 C1.125 7.125 1.125 7.125 0 6 C-0.04080783 4.00041636 -0.04254356 1.99954746 0 0 Z " fill="#AA007B" transform="translate(15,47)"/>
<path d="M0 0 C1.32 0 2.64 0 4 0 C2.925936 6.20570309 2.925936 6.20570309 0.37890625 8.390625 C-1.5 9.5 -1.5 9.5 -5 11 C-5.66 10.67 -6.32 10.34 -7 10 C-6.2575 9.62875 -5.515 9.2575 -4.75 8.875 C-1.52535535 6.67637865 0.00778279 4.32036201 2 1 C1.34 0.67 0.68 0.34 0 0 Z " fill="#C60076" transform="translate(22,16)"/>
<path d="M0 0 C0.99 0.33 1.98 0.66 3 1 C2.67 2.98 2.34 4.96 2 7 C4.97 7.495 4.97 7.495 8 8 C8 8.33 8 8.66 8 9 C5.36 8.67 2.72 8.34 0 8 C-0.98120464 4.94736336 -0.98120464 3.05263664 0 0 Z " fill="#780055" transform="translate(28,16)"/>
<path d="M0 0 C-0.33 0.99 -0.66 1.98 -1 3 C-1.66 3 -2.32 3 -3 3 C-3.33 3.99 -3.66 4.98 -4 6 C-6.0625 6.6875 -6.0625 6.6875 -8 7 C-6.76759083 3.3027725 -4.20634615 0 0 0 Z " fill="#82004F" transform="translate(37,47)"/>
<path d="M0 0 C1.32 0.33 2.64 0.66 4 1 C4 2.98 4 4.96 4 7 C3.01 7 2.02 7 1 7 C1.020625 6.21625 1.04125 5.4325 1.0625 4.625 C1.18684063 2.01885039 1.18684063 2.01885039 0 0 Z " fill="#440032" transform="translate(33,14)"/>
</svg>
