<?xml version="1.0" encoding="UTF-8"?>
<svg version="1.1" xmlns="http://www.w3.org/2000/svg" width="512" height="512">
<path d="M0 0 C168.96 0 337.92 0 512 0 C512 168.96 512 337.92 512 512 C343.04 512 174.08 512 0 512 C0 343.04 0 174.08 0 0 Z " fill="#AE0087" transform="translate(0,0)"/>
<path d="M0 0 C1.8994915 -0.00832352 1.8994915 -0.00832352 3.83735657 -0.01681519 C7.28170201 -0.03095487 10.72523871 -0.01411172 14.16950655 0.00946999 C17.78921853 0.02971265 21.40890129 0.02369266 25.02865601 0.0213623 C31.10273428 0.02141572 37.17649986 0.04108094 43.25048828 0.07324219 C50.25681699 0.11016148 57.26273707 0.11891151 64.26915038 0.11194468 C71.03310026 0.1056246 77.79691118 0.11641958 84.56083298 0.13591003 C87.42906054 0.14405027 90.29721674 0.14679987 93.16545486 0.1452179 C97.17431242 0.14417017 101.18263876 0.16842636 105.19140625 0.1953125 C106.37188034 0.1923819 107.55235443 0.18945129 108.76860046 0.18643188 C116.77879008 0.26917124 122.4518573 1.24973831 129.21630859 5.80273438 C134.44145842 11.14663761 137.09577061 17.49207769 137.08656311 24.96856689 C137.08862936 26.26150099 137.08862936 26.26150099 137.09073734 27.58055496 C137.08713923 28.5217355 137.08354113 29.46291603 137.07983398 30.43261719 C137.07995452 31.44414227 137.08007505 32.45566734 137.08019924 33.4978447 C137.07945299 36.77137197 137.07183781 40.04484228 137.06396484 43.31835938 C137.06249453 45.33968071 137.06147437 47.36100243 137.06091309 49.38232422 C137.05567053 56.87663341 137.04170933 64.37093445 137.02880859 71.86523438 C137.00818359 88.61273438 136.98755859 105.36023438 136.96630859 122.61523438 C196.03630859 122.61523438 255.10630859 122.61523438 315.96630859 122.61523438 C315.96630859 154.95523438 315.96630859 187.29523438 315.96630859 220.61523438 C256.89630859 220.61523438 197.82630859 220.61523438 136.96630859 220.61523438 C137.12450376 254.10742932 137.12450376 254.10742932 137.32666016 287.59936523 C137.34472656 294.09680176 137.34472656 294.09680176 137.3480835 297.14454651 C137.35420078 299.26001862 137.36821706 301.37547733 137.38861084 303.49085999 C137.41804964 306.70696001 137.42192738 309.92221241 137.42041016 313.13842773 C137.43480259 314.07098609 137.44919502 315.00354445 137.46402359 315.96436214 C137.4147987 323.80141269 135.06474047 329.43760896 130.77880859 335.92773438 C123.55381625 342.83161595 115.59217105 343.20152821 105.98608398 343.14868164 C104.71336136 343.15729721 103.44063873 343.16591278 102.12934875 343.17478943 C98.6622404 343.19715367 95.19559132 343.1943745 91.72843862 343.18546796 C88.82354988 343.18033139 85.91874545 343.18767215 83.01386541 343.19494003 C76.15589608 343.21189792 69.29814948 343.20841502 62.44018555 343.19165039 C55.38778558 343.17473234 48.33600476 343.19056801 41.28367239 343.22287327 C35.20690552 343.24964518 29.13033048 343.25682481 23.05351061 343.24835819 C19.43366174 343.24345106 15.81418511 343.24552315 12.19438362 343.26614571 C8.15451057 343.28806309 4.11579667 343.26901899 0.07592773 343.24633789 C-1.10827759 343.25803009 -2.29248291 343.26972229 -3.51257324 343.2817688 C-11.6683085 343.18891153 -18.25491575 341.57550336 -24.64630032 336.27883244 C-30.85286738 329.65670988 -31.47494727 320.83114682 -31.37426758 312.23022461 C-31.37470566 311.23404617 -31.37514374 310.23786774 -31.37559509 309.21150208 C-31.37352032 305.94873832 -31.35025122 302.6865011 -31.32666016 299.42382812 C-31.32105954 297.1498289 -31.31679164 294.87582605 -31.313797 292.6018219 C-31.30238494 286.63908764 -31.27294906 280.67657528 -31.23968506 274.71392822 C-31.20890562 268.62051393 -31.19527486 262.52706351 -31.18017578 256.43359375 C-31.14807589 244.49404354 -31.09692365 232.55465747 -31.03369141 220.61523438 C-34.33369141 220.61523438 -37.63369141 220.61523438 -41.03369141 220.61523438 C-41.03369141 188.27523437 -41.03369141 155.93523437 -41.03369141 122.61523438 C-37.73369141 122.61523438 -34.43369141 122.61523438 -31.03369141 122.61523438 C-31.04035324 121.35735611 -31.04701508 120.09947784 -31.05387878 118.80348206 C-31.11477953 106.93038382 -31.15970714 95.05731742 -31.18912792 83.18409824 C-31.20476207 77.08042944 -31.22595945 70.97688707 -31.26000977 64.87329102 C-31.29268315 58.97941284 -31.31056135 53.08565604 -31.31832314 47.19169426 C-31.3238523 44.94670642 -31.33464935 42.70172498 -31.35088158 40.45678902 C-31.37276158 37.30446307 -31.37565387 34.1526342 -31.37426758 31.00024414 C-31.38505341 30.07882629 -31.39583923 29.15740845 -31.4069519 28.20806885 C-31.37069246 20.55334249 -30.08522033 12.75550497 -24.64659691 6.9516983 C-17.13138102 0.72454183 -9.44743949 -0.10651222 0 0 Z " fill="#040103" transform="translate(118.03369140625,84.384765625)"/>
<path d="M0 0 C49.83 0 99.66 0 151 0 C151.061875 16.87125 151.12375 33.7425 151.1875 51.125 C151.21481201 56.4477002 151.24212402 61.77040039 151.27026367 67.25439453 C151.28381348 73.76538086 151.28381348 73.76538086 151.28633118 76.81564331 C151.2909311 78.94123214 151.30146824 81.06681325 151.31672668 83.19235229 C151.33870872 86.41629592 151.34171725 89.63976211 151.34057617 92.86376953 C151.3513705 93.80712221 151.36216482 94.75047489 151.37328625 95.72241402 C151.34526979 101.64169676 150.81858734 105.87052314 146.69410324 110.44993687 C141.25403959 115.21903395 135.080401 114.6983215 128.18334961 114.63110352 C126.90449387 114.63825882 125.62563812 114.64541412 124.30802917 114.65278625 C120.81615 114.6712352 117.32503844 114.6584047 113.83319163 114.63869596 C110.17113974 114.62225721 106.50913447 114.63112942 102.84706116 114.63621521 C96.69959309 114.6407298 90.55242993 114.62490462 84.4050293 114.59692383 C77.30607125 114.56486026 70.20766253 114.56489508 63.10866541 114.5821386 C56.26728004 114.59802156 49.42609534 114.59125977 42.5847187 114.57420158 C39.67851964 114.5673438 36.77248204 114.56835029 33.86628532 114.57574654 C29.80630023 114.58485514 25.74715869 114.5608361 21.68725586 114.53344727 C20.48552734 114.53997314 19.28379883 114.54649902 18.0456543 114.55322266 C7.53268798 114.43257713 7.53268798 114.43257713 3 110 C-0.65484577 104.85255957 -0.40934134 99.84127511 -0.34057617 93.77197266 C-0.34093778 92.74038214 -0.34129938 91.70879162 -0.34167194 90.64594078 C-0.3394391 87.31844818 -0.31662197 83.9914645 -0.29296875 80.6640625 C-0.28855596 78.60506432 -0.28549662 76.54606277 -0.28381348 74.48706055 C-0.26810732 66.86632226 -0.22622354 59.24565609 -0.1875 51.625 C-0.125625 34.58875 -0.06375 17.5525 0 0 Z " fill="#A90060" transform="translate(96,305)"/>
<path d="M0 0 C58.08 0 116.16 0 176 0 C176 30.36 176 60.72 176 92 C117.92 92 59.84 92 0 92 C0 61.64 0 31.28 0 0 Z " fill="#AD0187" transform="translate(255,210)"/>
<path d="M0 0 C1.53720703 0.00966797 1.53720703 0.00966797 3.10546875 0.01953125 C4.16894531 0.03628906 5.23242188 0.05304688 6.328125 0.0703125 C7.94654297 0.08384766 7.94654297 0.08384766 9.59765625 0.09765625 C12.25803778 0.12119945 14.91796836 0.15408451 17.578125 0.1953125 C17.67578125 2.18098958 17.7734375 4.16666667 17.87109375 6.15234375 C18.43595282 8.39311671 18.43595282 8.39311671 20.67970276 9.80072021 C24.23164017 11.50975503 26.72368644 11.56323901 30.65991211 11.55175781 C31.69993629 11.55482437 31.69993629 11.55482437 32.76097107 11.55795288 C35.04274262 11.5609499 37.32378358 11.54251368 39.60546875 11.5234375 C41.19820477 11.52037719 42.79094347 11.51850314 44.38368225 11.51776123 C47.71837648 11.51316457 51.05282837 11.49876547 54.38745117 11.4765625 C58.65216769 11.44830386 62.91669345 11.43735216 67.18149471 11.4328804 C71.2603437 11.42771174 75.33914525 11.41317345 79.41796875 11.3984375 C80.19165236 11.39655678 80.96533596 11.39467606 81.76246452 11.39273834 C83.96402198 11.38582607 86.1654333 11.37217004 88.36694336 11.35644531 C89.61761093 11.34961731 90.8682785 11.34278931 92.15684509 11.33575439 C95.38285536 11.20332822 98.41085444 10.80400415 101.578125 10.1953125 C101.908125 6.8953125 102.238125 3.5953125 102.578125 0.1953125 C123.60953861 -0.41725295 123.60953861 -0.41725295 129.578125 3.1953125 C132.5944751 6.2116626 134.42960898 8.80823273 134.70117283 13.17304516 C134.70025104 13.9298372 134.69932924 14.68662924 134.69837952 15.46635437 C134.70044576 16.76981701 134.70044576 16.76981701 134.70255375 18.09961224 C134.69895564 19.05375924 134.69535753 20.00790625 134.69165039 20.9909668 C134.69177093 22.01228353 134.69189146 23.03360025 134.69201565 24.08586597 C134.69126831 27.39710976 134.68364814 30.70829751 134.67578125 34.01953125 C134.67431128 36.06172661 134.67329091 38.10392235 134.67272949 40.14611816 C134.66748301 47.72502202 134.65352185 55.30391781 134.640625 62.8828125 C134.62 79.8159375 134.599375 96.7490625 134.578125 114.1953125 C85.078125 114.1953125 35.578125 114.1953125 -15.421875 114.1953125 C-15.545625 97.0146875 -15.669375 79.8340625 -15.796875 62.1328125 C-15.85149902 56.71480225 -15.90612305 51.29679199 -15.96240234 45.71459961 C-15.98950195 39.08117676 -15.98950195 39.08117676 -15.99453735 35.97242737 C-16.00373052 33.80849297 -16.02479144 31.64458867 -16.05532837 29.48085022 C-16.09935319 26.19624733 -16.10530805 22.91351654 -16.10302734 19.62866211 C-16.12461599 18.67017081 -16.14620464 17.71167952 -16.16844749 16.72414303 C-16.11479556 10.93843068 -15.10777058 7.78438531 -11.10105324 3.55507755 C-7.46182068 0.6080996 -4.64157149 -0.05157302 0 0 Z " fill="#A0006D" transform="translate(111.421875,92.8046875)"/>
<path d="M0 0 C49.83 0 99.66 0 151 0 C151 1.98 151 3.96 151 6 C101.17 6 51.34 6 0 6 C0 4.02 0 2.04 0 0 Z " fill="#92006D" transform="translate(96,296)"/>
<path d="M0 0 C49.5 0 99 0 150 0 C150 1.98 150 3.96 150 6 C100.5 6 51 6 0 6 C0 4.02 0 2.04 0 0 Z " fill="#A3007E" transform="translate(96,210)"/>
<path d="M0 0 C1.26296906 -0.00700928 2.52593811 -0.01401855 3.82717896 -0.02124023 C7.2674491 -0.03935837 10.70723536 -0.03245395 14.14751315 -0.01972389 C17.76364279 -0.00953375 21.37973345 -0.01900635 24.99586487 -0.02526855 C31.06746793 -0.03252852 37.13887584 -0.02300186 43.21044922 -0.00390625 C50.20824797 0.01784968 57.20558023 0.01081408 64.20336765 -0.01121187 C70.23341982 -0.02942497 76.26333239 -0.0318952 82.29340321 -0.0214572 C85.88524417 -0.01525328 89.47686665 -0.01430001 93.06869316 -0.02760315 C97.07732156 -0.04141504 101.08515932 -0.02221622 105.09375 0 C106.26860458 -0.00809692 107.44345917 -0.01619385 108.65391541 -0.02453613 C117.84736055 0.06947667 126.3949491 1.7609733 133.11157227 8.51757812 C138.54178554 16.39522529 139.99394928 23.75834424 139.91625977 33.15429688 C139.93005676 34.33727356 139.94385376 35.52025024 139.95806885 36.73907471 C139.99571162 40.5614707 139.99189395 44.38252236 139.98657227 48.20507812 C140.00352289 50.84580113 140.02290965 53.48650958 140.04467773 56.12719727 C140.09190293 62.69549803 140.10484319 69.26333581 140.10693359 75.83178711 C140.11260833 80.34081695 140.13948528 84.84952321 140.16976929 89.35844421 C140.20079076 94.05729449 140.22100985 98.75615335 140.23657227 103.45507812 C140.23961365 104.31515472 140.24265503 105.17523132 140.24578857 106.06137085 C140.25140576 108.45177183 140.24949453 110.84202257 140.24438477 113.23242188 C140.2463385 113.92128479 140.24829224 114.61014771 140.25030518 115.31988525 C140.23464503 118.53328669 140.09019501 121.44322555 139.11157227 124.51757812 C138.45157227 124.51757812 137.79157227 124.51757812 137.11157227 124.51757812 C137.10570602 123.25969986 137.09983978 122.00182159 137.09379578 120.70582581 C137.03650166 108.83257534 136.96370485 96.95950685 136.87585735 85.08644199 C136.83119237 78.9828531 136.7919275 72.87933036 136.76513672 66.77563477 C136.73906544 60.88163138 136.69863545 54.98788311 136.648386 49.09403801 C136.63174324 46.84910195 136.62021288 44.6041218 136.61395836 42.35913277 C136.60428929 39.20668119 136.5761956 36.05487848 136.54394531 32.90258789 C136.5453804 31.98117004 136.54681549 31.0597522 136.54829407 30.1104126 C136.43330378 22.12579198 135.04328189 14.28451803 129.11157227 8.51757812 C123.72088424 4.80203381 119.19765342 3.40167176 112.72457886 3.36367798 C111.084627 3.35077728 111.084627 3.35077728 109.4115448 3.33761597 C108.21668961 3.33335602 107.02183441 3.32909607 105.79077148 3.32470703 C104.52853256 3.31652954 103.26629364 3.30835205 101.96580505 3.29992676 C97.78264485 3.27376478 93.59947495 3.25840251 89.41625977 3.24414062 C87.97270833 3.23877809 86.52915695 3.23340057 85.08560562 3.22800827 C79.07718967 3.20638591 73.06877633 3.18765236 67.06033134 3.17638588 C58.46885267 3.16016652 49.87782761 3.12703095 41.28651989 3.06998503 C35.23537768 3.03118543 29.18435627 3.01174126 23.133093 3.00646532 C19.52428126 3.00282479 15.91595397 2.99094411 12.30727768 2.95836258 C8.27416118 2.92247041 4.24200985 2.92667805 0.20874023 2.93408203 C-0.97396957 2.9176767 -2.15667938 2.90127136 -3.37522888 2.8843689 C-10.87875897 2.94059015 -16.6504321 4.18553282 -22.88842773 8.51757812 C-29.59524119 15.41648661 -30.18589152 23.48316262 -30.20727539 32.67553711 C-30.21732101 33.67142349 -30.22736664 34.66730988 -30.23771667 35.69337463 C-30.26846958 38.96680148 -30.28556198 42.24014682 -30.30249023 45.51367188 C-30.32120821 47.79053952 -30.34078209 50.06740028 -30.36117554 52.34425354 C-30.41243606 58.32331271 -30.45209442 64.30239435 -30.48931885 70.28155518 C-30.52939655 76.38828056 -30.58047173 82.49491294 -30.63061523 88.6015625 C-30.72730259 100.57350232 -30.81173045 112.54549472 -30.88842773 124.51757812 C-31.87842773 124.51757812 -32.86842773 124.51757812 -33.88842773 124.51757812 C-33.91187523 114.76214244 -33.9295044 105.00671684 -33.94023991 95.25125885 C-33.94539933 90.71860235 -33.95236617 86.18596551 -33.96386719 81.65332031 C-34.04887478 47.03522526 -34.04887478 47.03522526 -33.57202148 32.54882812 C-33.54979019 31.63508423 -33.5275589 30.72134033 -33.50465393 29.77990723 C-33.179608 21.98996047 -31.60822339 14.63274244 -26.26342773 8.70507812 C-25.3469043 7.64353516 -25.3469043 7.64353516 -24.41186523 6.56054688 C-16.91271386 0.48925249 -9.37802409 -0.06452079 0 0 Z " fill="#D1B7CB" transform="translate(117.888427734375,82.482421875)"/>
<path d="M0 0 C0.33 0 0.66 0 1 0 C1.00364563 1.25565765 1.00729126 2.51131531 1.01104736 3.80502319 C1.04805752 15.66327512 1.10589627 27.52126881 1.18390274 39.37932396 C1.22333933 45.47506124 1.25554673 51.57065489 1.27099609 57.66650391 C1.28618753 63.55408064 1.32067799 69.44126237 1.36830902 75.32866287 C1.38309704 77.56997867 1.39103953 79.81135088 1.39188385 82.0527153 C1.39426295 85.20272224 1.42141963 88.3516459 1.45410156 91.50146484 C1.4490712 92.41928741 1.44404083 93.33710999 1.43885803 94.28274536 C1.56180743 101.98864216 3.4543589 108.74723637 8.25 114.875 C16.06897873 120.91693811 22.20789595 121.58642328 31.86669922 121.53344727 C33.13927582 121.54206284 34.41185242 121.55067841 35.72299194 121.55955505 C39.19429119 121.58194817 42.66513232 121.57913291 46.13647604 121.57023358 C49.04379997 121.56510157 51.95103947 121.57243429 54.85835469 121.57970566 C61.72254026 121.59667341 68.58650338 121.59317143 75.45068359 121.57641602 C82.51044706 121.55950494 89.56959172 121.57532177 96.6292876 121.6076389 C102.71028053 121.63441177 108.79108175 121.64158994 114.87212765 121.63312382 C118.49534474 121.62821598 122.11818994 121.63029235 125.74135971 121.65091133 C129.78613097 121.67283004 133.82974455 121.65378353 137.87451172 121.63110352 C139.06028809 121.64279572 140.24606445 121.65448792 141.46777344 121.66653442 C148.96255095 121.58131332 154.77338197 120.33993778 161 116 C167.44017725 109.26507591 168.29824594 101.84337988 168.31884766 92.86376953 C168.32889328 91.8582756 168.3389389 90.85278168 168.34928894 89.81681824 C168.380089 86.50548861 168.39714743 83.19423972 168.4140625 79.8828125 C168.43277668 77.58209541 168.45235028 75.28138516 168.4727478 72.98068237 C168.52404845 66.93420448 168.56368539 60.88770435 168.60089111 54.84112549 C168.6409436 48.66746527 168.6920303 42.49389743 168.7421875 36.3203125 C168.83892239 24.21360658 168.9233351 12.10684848 169 0 C169.66 0 170.32 0 171 0 C171.09285115 13.25676461 171.16384191 26.51345131 171.20724869 39.77047539 C171.22808616 45.92685339 171.25633405 52.08300822 171.30175781 58.23925781 C171.34535188 64.18502102 171.36916597 70.13057012 171.37950897 76.07648087 C171.38687597 78.34019463 171.40126186 80.60389724 171.42292023 82.86751938 C171.45213387 86.04848932 171.45594843 89.22858458 171.45410156 92.40966797 C171.46848267 93.33684128 171.48286377 94.26401459 171.49768066 95.21928406 C171.4503 102.80552753 169.58508897 109.42351609 165.10546875 115.62109375 C164.47253906 116.22050781 163.83960938 116.81992187 163.1875 117.4375 C162.56230469 118.05496094 161.93710938 118.67242187 161.29296875 119.30859375 C154.19479203 124.54455715 147.61336001 124.44060548 139.04736328 124.41992188 C137.75381927 124.42839142 136.46027527 124.43686096 135.12753296 124.44558716 C131.59434004 124.4677243 128.06138088 124.47073778 124.52812815 124.46883965 C121.57106377 124.46871958 118.61404827 124.47729849 115.65699756 124.48561716 C108.67640892 124.5048233 101.69593985 124.50774532 94.71533203 124.50097656 C87.53119221 124.49433822 80.34756613 124.51719772 73.16353047 124.55429029 C66.97983041 124.58505097 60.79629507 124.59634045 54.6125201 124.59245348 C50.92614489 124.59039246 47.24016959 124.59576402 43.55386734 124.62034607 C39.43937767 124.64687938 35.32596343 124.63283712 31.21142578 124.61523438 C30.00178162 124.62849762 28.79213745 124.64176086 27.5458374 124.65542603 C18.90712878 124.56971737 13.19753274 122.63692736 6.66015625 116.97265625 C6.13292969 116.34230469 5.60570313 115.71195312 5.0625 115.0625 C4.24458984 114.12083984 4.24458984 114.12083984 3.41015625 113.16015625 C-0.41076484 107.30705553 -0.27748689 101.41562134 -0.22705078 94.68017578 C-0.22734283 93.65517471 -0.22763489 92.63017365 -0.22793579 91.57411194 C-0.22654629 88.19775832 -0.21100274 84.82162741 -0.1953125 81.4453125 C-0.19158103 79.09976319 -0.18873469 76.75421232 -0.18673706 74.40866089 C-0.17911121 68.24373042 -0.15947161 62.07889461 -0.1373291 55.91400146 C-0.11684817 49.619764 -0.10773053 43.3255112 -0.09765625 37.03125 C-0.07622482 24.68745848 -0.04210143 12.34373712 0 0 Z " fill="#C09DB8" transform="translate(86,305)"/>
<path d="M0 0 C2.31 0 4.62 0 7 0 C7 30.36 7 60.72 7 92 C4.69 92 2.38 92 0 92 C0 61.64 0 31.28 0 0 Z " fill="#AF2B91" transform="translate(80,210)"/>
<path d="M0 0 C16.20535714 -0.80357143 16.20535714 -0.80357143 20.5 2.5625 C22.7733498 5.07984807 23.02058895 6.11941592 23.625 9.625 C22.9786377 13.11535642 22.08866997 14.27564786 20 17 C20.2769131 20.59987035 21.58505042 23.69845097 23 27 C20.03 27 17.06 27 14 27 C13.566875 26.030625 13.13375 25.06125 12.6875 24.0625 C11.2985139 20.72268235 11.2985139 20.72268235 8 20 C8 22.31 8 24.62 8 27 C5.36 27 2.72 27 0 27 C0 18.09 0 9.18 0 0 Z " fill="#0B0008" transform="translate(290,241)"/>
<path d="M0 0 C2.64 0 5.28 0 8 0 C8 3.3 8 6.6 8 10 C11.97377317 9.47640334 11.97377317 9.47640334 13.265625 7.15234375 C13.59046875 6.42144531 13.9153125 5.69054687 14.25 4.9375 C14.58515625 4.20402344 14.9203125 3.47054687 15.265625 2.71484375 C15.50796875 2.14894531 15.7503125 1.58304688 16 1 C18.64 1 21.28 1 24 1 C23.69964844 1.72445312 23.39929688 2.44890625 23.08984375 3.1953125 C20.02786414 10.44780998 20.02786414 10.44780998 21 18 C22.25845921 20.38551303 23.6178074 22.68148339 25 25 C25 25.66 25 26.32 25 27 C22.03 27 19.06 27 16 27 C12 19.25 12 19.25 12 17 C10.68 17 9.36 17 8 17 C8 20.3 8 23.6 8 27 C5.36 27 2.72 27 0 27 C0 18.09 0 9.18 0 0 Z " fill="#0A0007" transform="translate(377,241)"/>
<path d="M0 0 C4.22468047 2.13367701 7.41888159 4.32928458 9 8.875 C9 9.57625 9 10.2775 9 11 C6.36 11 3.72 11 1 11 C1 10.34 1 9.68 1 9 C-0.45635371 8.77825067 -1.91522956 8.57301302 -3.375 8.375 C-4.18710937 8.25898438 -4.99921875 8.14296875 -5.8359375 8.0234375 C-6.55007813 8.01570312 -7.26421875 8.00796875 -8 8 C-10.38785276 9.94234089 -10.38785276 9.94234089 -10.1875 13.5 C-10.24131237 16.84964703 -10.24131237 16.84964703 -9 19 C-7.72125 19.061875 -6.4425 19.12375 -5.125 19.1875 C-4.40570313 19.22230469 -3.68640625 19.25710938 -2.9453125 19.29296875 C-2.30335938 19.19628906 -1.66140625 19.09960938 -1 19 C-0.34 18.01 0.32 17.02 1 16 C2.9453125 15.70703125 2.9453125 15.70703125 5.125 15.8125 C6.40375 15.874375 7.6825 15.93625 9 16 C8.58534283 20.83766699 6.5801385 22.85646376 3 26 C-0.92265998 27.96132999 -5.71349439 27.34738685 -10 27 C-13.78986889 25.42088796 -15.83327915 23.46675336 -18 20 C-19.76074588 14.71776236 -19.79625804 10.62314139 -17.375 5.6875 C-12.63887159 0.3281968 -6.96623543 -1.45423096 0 0 Z " fill="#0B0008" transform="translate(364,241)"/>
<path d="M0 0 C2.97 0 5.94 0 9 0 C10.50827797 3.76757497 12.00518994 7.53956349 13.5 11.3125 C13.92925781 12.38435547 14.35851562 13.45621094 14.80078125 14.56054688 C15.40986328 16.10258789 15.40986328 16.10258789 16.03125 17.67578125 C16.40830078 18.62364502 16.78535156 19.57150879 17.17382812 20.5480957 C18 23 18 23 18 26 C15.36 26 12.72 26 10 26 C9.67 25.01 9.34 24.02 9 23 C6.03 23 3.06 23 0 23 C-0.33 23.99 -0.66 24.98 -1 26 C-3.64 26 -6.28 26 -9 26 C-8.02680355 19.3038274 -6.16866932 13.63167417 -3.21875 7.54296875 C-2.03084762 5.06436475 -0.99346422 2.56184986 0 0 Z " fill="#080006" transform="translate(325,242)"/>
<path d="M0 0 C0.33 0 0.66 0 1 0 C1.00364563 1.25565765 1.00729126 2.51131531 1.01104736 3.80502319 C1.04805752 15.66327512 1.10589627 27.52126881 1.18390274 39.37932396 C1.22333933 45.47506124 1.25554673 51.57065489 1.27099609 57.66650391 C1.28618753 63.55408064 1.32067799 69.44126237 1.36830902 75.32866287 C1.38309704 77.56997867 1.39103953 79.81135088 1.39188385 82.0527153 C1.39426295 85.20272224 1.42141963 88.3516459 1.45410156 91.50146484 C1.4490712 92.41928741 1.44404083 93.33710999 1.43885803 94.28274536 C1.56180743 101.98864216 3.4543589 108.74723637 8.25 114.875 C14.77776208 119.91917979 21.05489451 122.0996801 29.30879211 122.15821838 C30.35902054 122.1680072 31.40924896 122.17779602 32.49130249 122.18788147 C34.20357529 122.19651466 34.20357529 122.19651466 35.95043945 122.20532227 C37.76569878 122.22017166 37.76569878 122.22017166 39.61763 122.23532104 C42.9271404 122.26145745 46.23662734 122.28334056 49.54617715 122.30332303 C53.00820233 122.32523505 56.47018436 122.35259815 59.93217468 122.37937927 C66.48393847 122.42923577 73.0357263 122.47420064 79.58753699 122.51740164 C87.04824078 122.56683431 94.50890126 122.62173002 101.96956313 122.67708123 C117.31300203 122.79079312 132.65648081 122.89765553 148 123 C148 123.33 148 123.66 148 124 C131.20560359 124.1169806 114.41133495 124.20505994 97.61662388 124.25906086 C89.81792617 124.28480477 82.01948212 124.31988173 74.22094727 124.37719727 C67.42098993 124.42714976 60.62121636 124.45931873 53.82108063 124.47044247 C50.22283571 124.47694139 46.62511637 124.49213439 43.02704048 124.52865028 C39.00290075 124.5691561 34.97966539 124.5699419 30.95532227 124.56762695 C29.77208374 124.58560333 28.58884521 124.60357971 27.36975098 124.62210083 C18.8044592 124.56888137 13.1387767 122.58601854 6.66015625 116.97265625 C6.13292969 116.34230469 5.60570313 115.71195312 5.0625 115.0625 C4.24458984 114.12083984 4.24458984 114.12083984 3.41015625 113.16015625 C-0.41076484 107.30705553 -0.27748689 101.41562134 -0.22705078 94.68017578 C-0.22734283 93.65517471 -0.22763489 92.63017365 -0.22793579 91.57411194 C-0.22654629 88.19775832 -0.21100274 84.82162741 -0.1953125 81.4453125 C-0.19158103 79.09976319 -0.18873469 76.75421232 -0.18673706 74.40866089 C-0.17911121 68.24373042 -0.15947161 62.07889461 -0.1373291 55.91400146 C-0.11684817 49.619764 -0.10773053 43.3255112 -0.09765625 37.03125 C-0.07622482 24.68745848 -0.04210143 12.34373712 0 0 Z " fill="#E0D6DE" transform="translate(86,305)"/>
<path d="M0 0 C6.93 0 13.86 0 21 0 C21.33 1.32 21.66 2.64 22 4 C19.03 4 16.06 4 13 4 C13 11.59 13 19.18 13 27 C11.35 27 9.7 27 8 27 C8 19.41 8 11.82 8 4 C5.03 4 2.06 4 -1 4 C-0.67 2.68 -0.34 1.36 0 0 Z " fill="#BBBBBB" transform="translate(182,241)"/>
<path d="M0 0 C2.475 0.495 2.475 0.495 5 1 C5.25394531 1.90363281 5.50789062 2.80726563 5.76953125 3.73828125 C6.28580078 5.50751953 6.28580078 5.50751953 6.8125 7.3125 C7.14894531 8.48425781 7.48539063 9.65601563 7.83203125 10.86328125 C8.90986796 13.7579397 9.53577644 15.20842539 12 17 C12.66 17 13.32 17 14 17 C14.16822266 15.95779297 14.16822266 15.95779297 14.33984375 14.89453125 C15.08446115 11.62967036 16.24400088 8.76399795 17.5625 5.6875 C18.24505859 4.08455078 18.24505859 4.08455078 18.94140625 2.44921875 C19.29074219 1.64097656 19.64007813 0.83273438 20 0 C20.99 0 21.98 0 23 0 C22.37658609 3.5382203 21.44678155 6.73293028 20.15234375 10.08203125 C19.79462891 11.01337891 19.43691406 11.94472656 19.06835938 12.90429688 C18.69517578 13.86400391 18.32199219 14.82371094 17.9375 15.8125 C17.56044922 16.79154297 17.18339844 17.77058594 16.79492188 18.77929688 C15.86684405 21.1876001 14.93509884 23.59441614 14 26 C12.35 26 10.7 26 9 26 C7.67739984 22.79573933 6.36876329 19.58595147 5.0625 16.375 C4.68931641 15.47136719 4.31613281 14.56773437 3.93164062 13.63671875 C2.09239132 9.09658982 0.51452014 4.91652574 0 0 Z " fill="#DEDEDE" transform="translate(139,242)"/>
<path d="M0 0 C1.32 0 2.64 0 4 0 C4 8.91 4 17.82 4 27 C2.68 27 1.36 27 0 27 C0 18.09 0 9.18 0 0 Z " fill="#D1D1D1" transform="translate(170,241)"/>
<path d="M0 0 C2.475 0.495 2.475 0.495 5 1 C5.25394531 1.90363281 5.50789062 2.80726563 5.76953125 3.73828125 C6.28580078 5.50751953 6.28580078 5.50751953 6.8125 7.3125 C7.14894531 8.48425781 7.48539063 9.65601563 7.83203125 10.86328125 C8.93646616 13.82937232 9.68341665 14.99229443 12 17 C12.6875 19.1875 12.6875 19.1875 13 21 C12.01 21 11.02 21 10 21 C10 20.01 10 19.02 10 18 C9.34 18 8.68 18 8 18 C7.67 18.99 7.34 19.98 7 21 C6.01315119 18.62794139 5.0354245 16.25276513 4.0625 13.875 C3.78470703 13.20984375 3.50691406 12.5446875 3.22070312 11.859375 C1.61444624 7.91146651 0.5247835 4.26469631 0 0 Z " fill="#CECECE" transform="translate(139,242)"/>
<path d="M0 0 C7.26 0 14.52 0 22 0 C22 0.99 22 1.98 22 3 C14.74 3 7.48 3 0 3 C0 2.01 0 1.02 0 0 Z " fill="#5A5258" transform="translate(159,96)"/>
<path d="M0 0 C7.96548797 1.26436317 14.63048901 3.63040584 19.7109375 10.21875 C23.14920125 15.9175297 23.14920125 15.9175297 22.6171875 19.77734375 C22.41351563 20.51082031 22.20984375 21.24429688 22 22 C20.99684244 20.04579696 20.04587275 18.11741523 19.24609375 16.0703125 C16.12899756 8.57121151 10.15269228 5.27798037 2.9375 2.125 C1.968125 1.75375 0.99875 1.3825 0 1 C0 0.67 0 0.34 0 0 Z " fill="#D3B5CC" transform="translate(233,83)"/>
<path d="M0 0 C1.00315756 1.95420304 1.95412725 3.88258477 2.75390625 5.9296875 C5.29311996 12.03852048 9.12957483 15.08872879 15 18 C17.69081568 18.92510688 20.18857043 19.48883099 23 20 C22.34 20.66 21.68 21.32 21 22 C14.68389418 21.84961653 9.74243659 18.53705588 5.2265625 14.359375 C1.65369615 10.49022217 -0.08363327 7.19274482 -1 2 C-0.67 1.34 -0.34 0.68 0 0 Z " fill="#D0B1C9" transform="translate(87,407)"/>
<path d="M0 0 C0.33 0 0.66 0 1 0 C1.51102567 5.36576957 0.38862598 7.84893317 -3 12 C-10.9755142 19.94221352 -10.9755142 19.94221352 -16 21 C-19.3125 20.625 -19.3125 20.625 -22 20 C-22 19.67 -22 19.34 -22 19 C-21.34773437 18.82984375 -20.69546875 18.6596875 -20.0234375 18.484375 C-13.30957192 16.62271316 -8.18019658 14.78580675 -3.75 9.125 C-2.0667811 6.11925197 -0.94439443 3.30538052 0 0 Z " fill="#D0B4CA" transform="translate(254,408)"/>
<path d="M0 0 C-2.62158325 1.74772217 -5.01533063 2.91412139 -7.875 4.1875 C-13.48201682 6.97466142 -16.56972457 10.11782384 -18.73828125 16.00390625 C-19.22726473 17.65048328 -19.62376884 19.32406119 -20 21 C-22.11845249 17.56322996 -22.11845249 17.56322996 -21.6015625 15.10546875 C-17.17116097 6.40416015 -10.1353864 -0.46069938 0 0 Z " fill="#D6BAD0" transform="translate(108,84)"/>
<path d="M0 0 C0.99 0 1.98 0 3 0 C2.46509724 3.31639711 1.63243183 6.53004206 0.6875 9.75 C0.46449219 10.52859375 0.24148437 11.3071875 0.01171875 12.109375 C-1 14 -1 14 -3.10546875 14.765625 C-3.73066406 14.84296875 -4.35585937 14.9203125 -5 15 C-4.43174347 9.45949887 -2.37113483 4.96284034 0 0 Z " fill="#E5E5E5" transform="translate(159,242)"/>
<path d="M0 0 C1.98 0 3.96 0 6 0 C6.38218767 1.65614657 6.71395102 3.32457024 7 5 C6 6 6 6 2.9375 6.0625 C1.4834375 6.0315625 1.4834375 6.0315625 0 6 C0 4.02 0 2.04 0 0 Z " fill="#A40080" transform="translate(298,248)"/>
<path d="M0 0 C0.66 0.99 1.32 1.98 2 3 C2.7734375 3.7115625 2.7734375 3.7115625 3.5625 4.4375 C5.23257419 6.25279803 5.58605964 7.59914589 6 10 C5.01 10 4.02 10 3 10 C3 9.01 3 8.02 3 7 C2.34 7 1.68 7 1 7 C0.67 7.99 0.34 8.98 0 10 C-0.66 7.36 -1.32 4.72 -2 2 C-1.34 2 -0.68 2 0 2 C0 1.34 0 0.68 0 0 Z " fill="#BABABA" transform="translate(146,253)"/>
<path d="M0 0 C0.66 0.66 1.32 1.32 2 2 C-4.89715536 6.07877462 -4.89715536 6.07877462 -9.5 5.75 C-10.325 5.5025 -11.15 5.255 -12 5 C-12 4.67 -12 4.34 -12 4 C-11.30132812 3.79503906 -10.60265625 3.59007812 -9.8828125 3.37890625 C-8.97273437 3.10949219 -8.06265625 2.84007812 -7.125 2.5625 C-6.22007812 2.29566406 -5.31515625 2.02882813 -4.3828125 1.75390625 C-2.01724619 1.07386174 -2.01724619 1.07386174 0 0 Z " fill="#CCA6C3" transform="translate(244,423)"/>
<path d="M0 0 C1.5 1.25 1.5 1.25 3 3 C3 4.32 3 5.64 3 7 C1.35 7 -0.3 7 -2 7 C-1.125 1.125 -1.125 1.125 0 0 Z " fill="#8C006C" transform="translate(329,252)"/>
<path d="M0 0 C4.62 0 9.24 0 14 0 C13.67 0.66 13.34 1.32 13 2 C11.96939453 1.94779297 11.96939453 1.94779297 10.91796875 1.89453125 C10.01691406 1.86746094 9.11585938 1.84039062 8.1875 1.8125 C6.84751953 1.76029297 6.84751953 1.76029297 5.48046875 1.70703125 C2.58352485 2.04918998 1.77444972 2.75393573 0 5 C0 3.35 0 1.7 0 0 Z " fill="#650042" transform="translate(214,93)"/>
<path d="M0 0 C5.20540698 0.96396425 9.59913433 1.87680501 14 5 C13.34 5.66 12.68 6.32 12 7 C11.319375 6.566875 10.63875 6.13375 9.9375 5.6875 C6.6953022 3.82496084 3.45513711 2.42270352 0 1 C0 0.67 0 0.34 0 0 Z " fill="#CCB0C6" transform="translate(233,83)"/>
<path d="M0 0 C0.66 0.66 1.32 1.32 2 2 C1.54625 2.515625 1.0925 3.03125 0.625 3.5625 C-1.38200383 6.57300574 -2.12731809 9.50927237 -3 13 C-4.11328125 11.26171875 -4.11328125 11.26171875 -5 9 C-4.35546875 6.89453125 -4.35546875 6.89453125 -3.1875 4.8125 C-2.80980469 4.11769531 -2.43210937 3.42289062 -2.04296875 2.70703125 C-1 1 -1 1 0 0 Z " fill="#CFAAC7" transform="translate(91,92)"/>
<path d="M0 0 C1.98 0.495 1.98 0.495 4 1 C3.67 2.32 3.34 3.64 3 5 C1.68 4.67 0.36 4.34 -1 4 C-0.67 2.68 -0.34 1.36 0 0 Z " fill="#4B3A48" transform="translate(190,95)"/>
<path d="M0 0 C0.66 0.33 1.32 0.66 2 1 C-0.64 3.64 -3.28 6.28 -6 9 C-6.66 8.67 -7.32 8.34 -8 8 C-3.375 2.25 -3.375 2.25 0 0 Z " fill="#2A2128" transform="translate(98,88)"/>
</svg>
